<svg xmlns="http://www.w3.org/2000/svg" width="512" height="512" viewBox="0 0 512 512" role="img" aria-labelledby="title">
  <title id="title">Cadence</title>
  <rect width="512" height="512" rx="116" fill="#F7F1E4"/>
  <rect x="36" y="36" width="440" height="440" rx="96" fill="#FFFBF3" stroke="#0B0B0C" stroke-width="3"/>
  <!-- Calendar body -->
  <rect x="96" y="118" width="320" height="276" rx="36" fill="#FFFFFF" stroke="#0B0B0C" stroke-width="10"/>
  <!-- Cobalt header -->
  <path d="M106 118h300a26 26 0 0 1 26 26v54H80v-54a26 26 0 0 1 26-26z" fill="#FFD43B"/>
  <!-- Header rhythm dots -->
  <circle cx="156" cy="156" r="11" fill="#F7F1E4"/>
  <circle cx="204" cy="156" r="11" fill="#F7F1E4"/>
  <circle cx="252" cy="156" r="11" fill="#F7F1E4"/>
  <!-- Grid -->
  <g stroke="#0B0B0C" stroke-width="6" opacity="0.16" fill="none">
    <line x1="176" y1="218" x2="176" y2="378"/>
    <line x1="256" y1="218" x2="256" y2="378"/>
    <line x1="336" y1="218" x2="336" y2="378"/>
    <line x1="112" y1="274" x2="400" y2="274"/>
    <line x1="112" y1="330" x2="400" y2="330"/>
  </g>
  <!-- Rhythm bars (filled days) -->
  <rect x="124" y="230" width="40" height="28" rx="8" fill="#FFD43B"/>
  <rect x="204" y="230" width="40" height="28" rx="8" fill="#0B0B0C"/>
  <rect x="284" y="286" width="40" height="28" rx="8" fill="#FFD43B"/>
  <rect x="364" y="342" width="40" height="28" rx="8" fill="#0B0B0C"/>
</svg>
