<?xml version="1.0" encoding="utf-8"?>
<!DOCTYPE svg PUBLIC "-//W3C//DTD SVG 1.0//EN" "http://www.w3.org/TR/2001/REC-SVG-20010904/DTD/svg10.dtd">
<svg version="1.0" xmlns="http://www.w3.org/2000/svg" width="2000px" height="2000px" viewBox="0 0 2000 2000" preserveAspectRatio="xMidYMid meet">
 <g fill="#000000">
  <path d="M948.24 1955.66 c-26.17 -1.17 -76.37 -6.84 -109.38 -12.30 -128.52 -21.48 -252.15 -69.92 -361.33 -141.41 -176.95 -115.82 -309.18 -283.59 -380.08 -481.64 -21.29 -59.96 -40.63 -142.19 -48.83 -208.98 -5.27 -43.36 -7.23 -138.09 -3.91 -181.05 16.02 -199.02 88.48 -381.84 211.33 -532.81 88.67 -109.18 192.58 -192.19 319.14 -254.69 79.30 -39.45 147.66 -63.09 229.49 -80.08 71.09 -14.65 113.28 -18.55 195.31 -18.75 81.25 0 121.88 3.91 195.31 18.75 302.93 61.33 562.89 274.41 685.35 561.52 38.87 91.60 59.96 174.22 72.85 286.91 3.91 33.59 3.32 149.02 -0.98 185.55 -13.67 119.53 -41.80 218.75 -90.04 318.36 -103.91 214.45 -280.66 380.66 -500.78 470.90 -129.69 53.32 -265.23 76.17 -413.48 69.73z m403.32 -101.37 c27.73 -11.13 91.21 -43.36 121.09 -61.33 59.77 -36.33 108.01 -72.66 158.59 -120.31 l15.04 -14.06 -6.64 -19.92 c-19.14 -57.03 -36.13 -141.02 -42.19 -208.40 -3.32 -38.48 -1.37 -150.20 3.13 -174.41 12.30 -67.19 35.55 -105.47 75.39 -124.61 21.68 -10.55 40.23 -14.06 72.85 -14.06 43.55 0 83.79 8.79 134.18 29.10 15.63 6.45 24.41 9.18 25.39 7.81 0.59 -1.17 2.34 -12.30 3.52 -24.80 9.96 -100.59 10.16 -149.41 0.78 -246.88 l-3.32 -34.77 -388.28 0 -388.28 0 0 190.43 c0 104.69 0.59 190.43 1.17 190.43 0.78 0 25.59 -11.72 55.27 -26.17 86.52 -41.99 130.08 -59.18 179.10 -70.70 29.30 -6.84 73.63 -8.59 95.70 -3.71 63.28 13.67 88.28 57.81 70.70 125 -8.59 32.81 -21.88 60.55 -67.97 142.58 -65.82 117.19 -86.91 160.94 -109.38 226.76 -24.61 72.07 -34.96 134.57 -32.42 197.07 1.37 36.13 2.54 44.53 5.86 43.36 1.17 -0.59 10.55 -4.30 20.70 -8.40z m-274.61 -242.19 l8.98 -1.37 0 -175.39 c0 -96.68 -0.59 -175.59 -1.56 -175.59 -0.78 0 -8.40 2.73 -16.99 6.05 -158.59 61.33 -393.16 104.49 -520.12 95.70 -62.30 -4.30 -102.93 -17.58 -118.95 -38.67 -4.88 -6.45 -5.47 -8.98 -6.05 -24.80 -0.78 -21.48 2.15 -34.77 14.26 -61.91 13.67 -31.45 46.68 -83.79 75.98 -120.70 l9.96 -12.50 33.20 1.17 c78.32 2.73 168.95 20.90 303.71 60.74 19.92 5.86 37.70 11.33 39.65 11.91 3.13 1.37 3.32 -4.10 3.32 -98.24 l0 -99.41 -8.98 -1.37 c-25.39 -3.32 -58.59 0.20 -98.44 10.74 -39.06 10.35 -70.51 22.66 -162.30 63.48 -18.36 8.01 -42.77 17.97 -54.10 21.88 -20.12 6.84 -21.88 7.23 -47.27 7.23 -24.22 0 -26.95 -0.39 -32.42 -4.30 -3.52 -2.54 -8.20 -8.59 -10.74 -13.67 -4.49 -8.98 -4.69 -11.33 -4.69 -46.48 0.20 -40.43 2.73 -61.13 12.89 -104.49 21.29 -90.82 60.16 -155.86 107.03 -179.69 19.92 -9.96 29.49 -11.72 63.48 -11.72 35.16 0 58.79 2.73 101.76 11.72 78.71 16.41 180.86 50.59 285.16 95.70 12.89 5.66 25.39 10.94 27.93 11.91 l4.30 1.76 0 -187.50 0 -187.50 -412.11 0 -412.11 0 5.08 13.28 c66.21 170.51 97.85 361.52 93.95 568.75 -1.76 85.94 -5.86 139.45 -17.19 220.51 -14.45 102.73 -28.71 166.21 -67.58 299.22 -0.98 3.13 11.52 19.73 26.56 35.55 l8.79 9.18 378.32 0 c208.01 0 382.23 -0.59 387.30 -1.17z"/>
 </g>
 <g fill="#ffffff">
  <path d="M980.08 1955.66 c10.94 -0.39 28.91 -0.39 40.04 0 10.94 0.20 1.95 0.59 -20.12 0.59 -22.07 0 -31.05 -0.39 -19.92 -0.59z"/>
  <path d="M1321.48 1865.82 c-2.73 -18.36 -3.52 -86.52 -1.37 -108.98 4.88 -47.46 14.84 -91.80 31.45 -140.43 22.46 -65.82 43.55 -109.57 109.38 -226.76 52.73 -93.75 66.80 -125.59 72.27 -162.70 5.08 -35.74 -12.30 -67.38 -45.51 -83.20 -40.82 -19.34 -88.48 -16.99 -163.48 8.40 -37.11 12.70 -61.72 23.24 -135.16 58.98 -33.01 16.02 -60.55 29.10 -61.13 29.10 -0.59 0 -0.98 -89.65 -0.98 -199.22 l0 -199.22 394.14 0 394.14 0 3.32 35.74 c9.38 98.63 9.38 153.71 0.20 246.48 -1.76 17.19 -3.71 33.98 -4.30 37.30 l-1.37 6.05 -22.46 -9.57 c-51.76 -22.27 -91.41 -32.42 -132.81 -34.18 -33.01 -1.37 -52.34 1.95 -75.98 13.48 -39.84 19.14 -63.09 57.62 -75.39 124.61 -4.49 24.41 -6.45 125 -3.13 162.50 6.05 69.14 20.12 138.28 41.60 206.05 l9.96 31.84 -16.41 15.23 c-71.48 66.80 -139.06 113.87 -224.41 156.45 -31.84 15.82 -85.55 39.26 -90.04 39.26 -0.78 0 -1.76 -3.32 -2.54 -7.23z"/>
  <path d="M1670.90 1681.64 c4.10 -4.30 8.01 -7.81 8.59 -7.81 0.59 0 -2.54 3.52 -6.64 7.81 -4.10 4.30 -8.01 7.81 -8.59 7.81 -0.59 0 2.54 -3.52 6.64 -7.81z"/>
  <path d="M321.29 1675.39 l-9.77 -10.35 10.35 9.77 c9.38 8.98 11.13 10.74 9.57 10.74 -0.20 0 -4.88 -4.69 -10.16 -10.16z"/>
  <path d="M294.73 1607.81 c-5.86 -6.25 -14.65 -16.60 -19.53 -23.05 l-8.98 -11.52 2.73 -7.81 c1.56 -4.30 9.18 -30.27 16.99 -57.62 59.77 -207.23 81.84 -435.35 62.50 -641.60 -12.50 -133.40 -44.34 -271.68 -87.50 -380.08 -4.88 -12.50 -8.98 -23.24 -8.98 -24.02 0 -0.59 189.06 -1.17 419.92 -1.17 l419.92 0 0 195.31 c0 107.42 -0.78 195.31 -1.56 195.31 -0.78 0 -16.02 -6.25 -33.59 -13.87 -166.80 -71.88 -303.71 -110.94 -389.84 -111.13 -27.73 0 -38.48 2.15 -57.62 11.72 -46.88 23.83 -85.74 88.87 -107.03 179.69 -9.57 40.82 -12.70 64.65 -12.89 98.63 0 29.10 0.39 31.84 4.69 40.63 7.62 15.23 13.09 17.97 37.30 17.97 18.55 0 22.66 -0.78 41.41 -7.23 11.33 -3.91 35.74 -13.87 54.10 -21.88 94.73 -42.19 125.78 -54.10 167.19 -64.65 34.96 -8.79 56.45 -11.52 86.72 -10.35 14.06 0.59 25.98 1.37 26.56 1.95 0.59 0.59 0.78 48.83 0.59 107.42 l-0.59 106.64 -11.72 -3.71 c-135.35 -42.97 -258.98 -69.73 -339.45 -73.24 l-27.73 -1.37 -9.96 12.50 c-5.27 6.84 -16.80 22.66 -25.59 34.96 -55.47 79.10 -76.56 137.30 -58.59 160.94 25.98 33.98 115.04 46.88 237.50 34.38 87.30 -8.98 198.24 -31.25 288.67 -57.81 43.55 -12.70 102.34 -33.20 129.10 -45.12 1.76 -0.78 2.34 36.72 2.34 183.59 l0 184.38 -8.98 1.37 c-5.08 0.59 -182.03 1.17 -393.36 1.17 l-384.38 0 -10.35 -11.33z"/>
  <path d="M43.36 1052.73 c0 -3.71 0.39 -5.27 0.98 -3.32 0.39 1.76 0.39 4.88 0 6.84 -0.59 1.76 -0.98 0.20 -0.98 -3.52z"/>
  <path d="M1955.47 1046.88 c0 -3.71 0.39 -5.27 0.98 -3.32 0.39 1.76 0.39 4.88 0 6.84 -0.59 1.76 -0.98 0.20 -0.98 -3.52z"/>
  <path d="M1955.47 955.08 c0 -3.71 0.39 -5.27 0.98 -3.32 0.39 1.76 0.39 4.88 0 6.84 -0.59 1.76 -0.98 0.20 -0.98 -3.52z"/>
  <path d="M1688.48 335.55 l-9.77 -10.35 10.35 9.77 c9.38 8.98 11.13 10.74 9.57 10.74 -0.20 0 -4.88 -4.69 -10.16 -10.16z"/>
  <path d="M309.57 335.94 c4.10 -4.30 8.01 -7.81 8.59 -7.81 0.59 0 -2.54 3.52 -6.64 7.81 -4.10 4.30 -8.01 7.81 -8.59 7.81 -0.59 0 2.54 -3.52 6.64 -7.81z"/>
  <path d="M334.96 310.55 c7.42 -7.42 14.06 -13.67 14.45 -13.67 0.59 0 -5.08 6.25 -12.50 13.67 -7.42 7.62 -14.06 13.67 -14.45 13.67 -0.59 0 5.08 -6.05 12.50 -13.67z"/>
  <path d="M1660.94 308.20 l-5.66 -6.45 6.45 5.66 c3.32 3.32 6.25 6.05 6.25 6.45 0 1.56 -1.56 0.20 -7.03 -5.66z"/>
  <path d="M960.55 43.55 c2.34 -0.39 6.25 -0.39 8.79 0 2.34 0.39 0.39 0.78 -4.49 0.78 -4.88 0 -6.84 -0.39 -4.30 -0.78z"/>
  <path d="M1037.70 43.55 c1.76 -0.39 4.88 -0.39 6.84 0 1.76 0.59 0.20 0.98 -3.52 0.98 -3.71 0 -5.27 -0.39 -3.32 -0.98z"/>
 </g>
</svg>